<?xml version="1.0" encoding="utf-8"?>
<!-- Generator: Adobe Illustrator 23.1.0, SVG Export Plug-In . SVG Version: 6.00 Build 0)  -->
<svg version="1.1" id="Layer_1" xmlns="http://www.w3.org/2000/svg" xmlns:xlink="http://www.w3.org/1999/xlink" x="0px" y="0px"
	 viewBox="0 0 400 300" style="enable-background:new 0 0 400 300;" xml:space="preserve">
<style type="text/css">
	.st0{clip-path:url(#SVGID_2_);fill:url(#SVGID_3_);}
	.st1{fill:#F16522;}
	.st2{clip-path:url(#SVGID_5_);fill:url(#SVGID_6_);}
	.st3{fill:#BFBEBF;}
	.st4{clip-path:url(#SVGID_8_);fill:url(#SVGID_9_);}
</style>
<g>
	<g>
		<defs>
			<polygon id="SVGID_1_" points="194,156.41 182,148.4 182,159.99 194,168 206,159.99 206,148.4 			"/>
		</defs>
		<clipPath id="SVGID_2_">
			<use xlink:href="#SVGID_1_"  style="overflow:visible;"/>
		</clipPath>
		
			<linearGradient id="SVGID_3_" gradientUnits="userSpaceOnUse" x1="3.5049" y1="297.8159" x2="4.5049" y2="297.8159" gradientTransform="matrix(14.0794 -7.9832 -7.9832 -14.0794 2519.2864 4380.8882)">
			<stop  offset="0" style="stop-color:#FFA001"/>
			<stop  offset="1" style="stop-color:#F16522"/>
		</linearGradient>
		<polygon class="st0" points="173.59,153.17 200.16,138.1 214.41,163.23 187.84,178.3 		"/>
	</g>
	<polygon class="st1" points="182,159.99 185.31,162.2 194,156.41 182,148.4 	"/>
	<g>
		<defs>
			<polygon id="SVGID_4_" points="194,140.01 194,151.6 206,143.59 218,151.6 218,140.01 206,132 			"/>
		</defs>
		<clipPath id="SVGID_5_">
			<use xlink:href="#SVGID_4_"  style="overflow:visible;"/>
		</clipPath>
		
			<linearGradient id="SVGID_6_" gradientUnits="userSpaceOnUse" x1="-3.5873" y1="301.6547" x2="-2.5874" y2="301.6547" gradientTransform="matrix(-14.2996 7.4224 7.4224 14.2996 -2083.252 -4145.6582)">
			<stop  offset="0" style="stop-color:#E2E3E4"/>
			<stop  offset="1" style="stop-color:#C0BFBF"/>
		</linearGradient>
		<polygon class="st2" points="226.02,147.44 199.09,161.41 185.98,136.16 212.91,122.19 		"/>
	</g>
	<polygon class="st3" points="218,151.6 218,140.01 214.69,137.8 206,143.59 	"/>
	<g>
		<defs>
			<polygon id="SVGID_7_" points="206,159.99 206,148.4 194,156.41 182,148.4 182,159.99 194,168 			"/>
		</defs>
		<clipPath id="SVGID_8_">
			<use xlink:href="#SVGID_7_"  style="overflow:visible;"/>
		</clipPath>
		
			<linearGradient id="SVGID_9_" gradientUnits="userSpaceOnUse" x1="3.5393" y1="300.0256" x2="4.5392" y2="300.0256" gradientTransform="matrix(14.2996 -7.4224 -7.4224 -14.2996 2369.252 4475.2598)">
			<stop  offset="0" style="stop-color:#E2E3E4"/>
			<stop  offset="1" style="stop-color:#C0BFBF"/>
		</linearGradient>
		<polygon class="st4" points="173.98,152.56 200.91,138.59 214.02,163.84 187.09,177.81 		"/>
	</g>
	<polygon class="st3" points="182,148.4 182,159.99 185.31,162.2 194,156.41 	"/>
</g>
</svg>
